<svg xmlns="http://www.w3.org/2000/svg" xmlns:xlink="http://www.w3.org/1999/xlink" width="40" zoomAndPan="magnify" viewBox="0 0 30 30.000001" height="40" preserveAspectRatio="xMidYMid meet" version="1.0"><defs><g/></defs><g fill="#8c52ff" fill-opacity="1"><g transform="translate(0.48387, 22.534135)"><g><path d="M 7.21875 -13.5625 C 6.695312 -13.5625 6.191406 -13.296875 5.703125 -12.765625 C 5.222656 -12.242188 4.867188 -11.722656 4.640625 -11.203125 L 4.296875 -10.4375 L 1.171875 -11.9375 C 1.210938 -12.070312 1.28125 -12.242188 1.375 -12.453125 C 1.46875 -12.671875 1.6875 -13.054688 2.03125 -13.609375 C 2.375 -14.160156 2.753906 -14.644531 3.171875 -15.0625 C 3.585938 -15.476562 4.15625 -15.859375 4.875 -16.203125 C 5.601562 -16.546875 6.382812 -16.71875 7.21875 -16.71875 C 8.300781 -16.71875 9.242188 -16.582031 10.046875 -16.3125 C 10.847656 -16.039062 11.46875 -15.703125 11.90625 -15.296875 C 12.34375 -14.890625 12.695312 -14.410156 12.96875 -13.859375 C 13.238281 -13.304688 13.410156 -12.804688 13.484375 -12.359375 C 13.554688 -11.910156 13.59375 -11.441406 13.59375 -10.953125 C 13.59375 -10.234375 13.394531 -9.476562 13 -8.6875 C 12.601562 -7.894531 12.117188 -7.191406 11.546875 -6.578125 C 10.984375 -5.960938 10.414062 -5.398438 9.84375 -4.890625 C 9.28125 -4.378906 8.800781 -3.984375 8.40625 -3.703125 L 7.796875 -3.28125 L 13.890625 -3.28125 L 13.890625 0 L 1.09375 0 L 1.09375 -0.9375 C 1.320312 -1.125 1.628906 -1.378906 2.015625 -1.703125 C 2.398438 -2.023438 3.078125 -2.644531 4.046875 -3.5625 C 5.015625 -4.476562 5.867188 -5.335938 6.609375 -6.140625 C 7.347656 -6.941406 8.023438 -7.800781 8.640625 -8.71875 C 9.253906 -9.632812 9.5625 -10.378906 9.5625 -10.953125 C 9.5625 -11.171875 9.535156 -11.394531 9.484375 -11.625 C 9.441406 -11.851562 9.351562 -12.128906 9.21875 -12.453125 C 9.082031 -12.773438 8.84375 -13.039062 8.5 -13.25 C 8.15625 -13.457031 7.726562 -13.5625 7.21875 -13.5625 Z M 7.21875 -13.5625 "/></g></g></g><g fill="#8c52ff" fill-opacity="1"><g transform="translate(15.047841, 22.534135)"><g><path d="M 0.5625 -8.203125 C 0.5625 -10.910156 1.203125 -13.003906 2.484375 -14.484375 C 3.773438 -15.972656 5.363281 -16.71875 7.25 -16.71875 C 9.132812 -16.71875 10.71875 -15.972656 12 -14.484375 C 13.28125 -13.003906 13.921875 -10.910156 13.921875 -8.203125 C 13.921875 -6.722656 13.738281 -5.425781 13.375 -4.3125 C 13.019531 -3.195312 12.523438 -2.3125 11.890625 -1.65625 C 11.265625 -1 10.5625 -0.507812 9.78125 -0.1875 C 9.007812 0.132812 8.164062 0.296875 7.25 0.296875 C 6.332031 0.296875 5.484375 0.132812 4.703125 -0.1875 C 3.929688 -0.507812 3.222656 -1 2.578125 -1.65625 C 1.941406 -2.3125 1.445312 -3.195312 1.09375 -4.3125 C 0.738281 -5.425781 0.5625 -6.722656 0.5625 -8.203125 Z M 4.34375 -8.203125 C 4.34375 -6.460938 4.59375 -5.15625 5.09375 -4.28125 C 5.601562 -3.414062 6.320312 -2.984375 7.25 -2.984375 C 8.164062 -2.984375 8.875 -3.414062 9.375 -4.28125 C 9.875 -5.15625 10.125 -6.460938 10.125 -8.203125 C 10.125 -9.859375 9.867188 -11.144531 9.359375 -12.0625 C 8.847656 -12.976562 8.140625 -13.4375 7.234375 -13.4375 C 6.335938 -13.4375 5.628906 -12.972656 5.109375 -12.046875 C 4.597656 -11.128906 4.34375 -9.847656 4.34375 -8.203125 Z M 4.34375 -8.203125 "/></g></g></g></svg>