<svg xmlns="http://www.w3.org/2000/svg" xmlns:xlink="http://www.w3.org/1999/xlink" width="40" zoomAndPan="magnify" viewBox="0 0 30 30.000001" height="40" preserveAspectRatio="xMidYMid meet" version="1.0"><defs><g/><clipPath id="ad6866b2bc"><path d="M 0.484375 6 L 15 6 L 15 24 L 0.484375 24 Z M 0.484375 6 " clip-rule="nonzero"/></clipPath></defs><g clip-path="url(#ad6866b2bc)"><g fill="#8c52ff" fill-opacity="1"><g transform="translate(0.48387, 23.286547)"><g><path d="M 12.046875 -17.125 L 7 -11.25 C 7.289062 -11.414062 7.695312 -11.5 8.21875 -11.5 C 8.832031 -11.5 9.445312 -11.367188 10.0625 -11.109375 C 10.6875 -10.859375 11.269531 -10.492188 11.8125 -10.015625 C 12.363281 -9.535156 12.8125 -8.898438 13.15625 -8.109375 C 13.507812 -7.328125 13.6875 -6.457031 13.6875 -5.5 C 13.6875 -4.53125 13.5 -3.660156 13.125 -2.890625 C 12.757812 -2.128906 12.269531 -1.519531 11.65625 -1.0625 C 11.039062 -0.613281 10.363281 -0.269531 9.625 -0.03125 C 8.894531 0.195312 8.128906 0.3125 7.328125 0.3125 C 5.398438 0.3125 3.78125 -0.242188 2.46875 -1.359375 C 1.15625 -2.484375 0.5 -3.863281 0.5 -5.5 C 0.5 -6.882812 0.691406 -8.023438 1.078125 -8.921875 C 1.460938 -9.816406 2.171875 -10.953125 3.203125 -12.328125 L 7.21875 -17.125 Z M 4.546875 -5.5 C 4.546875 -4.75 4.785156 -4.128906 5.265625 -3.640625 C 5.753906 -3.148438 6.378906 -2.90625 7.140625 -2.90625 C 7.898438 -2.90625 8.53125 -3.148438 9.03125 -3.640625 C 9.53125 -4.128906 9.78125 -4.75 9.78125 -5.5 C 9.78125 -6.257812 9.523438 -6.890625 9.015625 -7.390625 C 8.515625 -7.898438 7.890625 -8.15625 7.140625 -8.15625 C 6.421875 -8.15625 5.804688 -7.898438 5.296875 -7.390625 C 4.796875 -6.890625 4.546875 -6.257812 4.546875 -5.5 Z M 4.546875 -5.5 "/></g></g></g></g><g fill="#8c52ff" fill-opacity="1"><g transform="translate(14.354466, 23.286547)"><g><path d="M 0.578125 -8.5625 C 0.578125 -11.382812 1.25 -13.566406 2.59375 -15.109375 C 3.9375 -16.660156 5.585938 -17.4375 7.546875 -17.4375 C 9.515625 -17.4375 11.164062 -16.660156 12.5 -15.109375 C 13.84375 -13.566406 14.515625 -11.382812 14.515625 -8.5625 C 14.515625 -7.019531 14.328125 -5.664062 13.953125 -4.5 C 13.578125 -3.34375 13.0625 -2.421875 12.40625 -1.734375 C 11.75 -1.046875 11.015625 -0.53125 10.203125 -0.1875 C 9.390625 0.144531 8.503906 0.3125 7.546875 0.3125 C 6.597656 0.3125 5.71875 0.144531 4.90625 -0.1875 C 4.101562 -0.53125 3.367188 -1.046875 2.703125 -1.734375 C 2.035156 -2.421875 1.515625 -3.34375 1.140625 -4.5 C 0.765625 -5.664062 0.578125 -7.019531 0.578125 -8.5625 Z M 4.53125 -8.5625 C 4.53125 -6.738281 4.789062 -5.375 5.3125 -4.46875 C 5.84375 -3.5625 6.59375 -3.109375 7.5625 -3.109375 C 8.507812 -3.109375 9.242188 -3.5625 9.765625 -4.46875 C 10.296875 -5.375 10.5625 -6.738281 10.5625 -8.5625 C 10.5625 -10.289062 10.296875 -11.628906 9.765625 -12.578125 C 9.234375 -13.535156 8.492188 -14.015625 7.546875 -14.015625 C 6.609375 -14.015625 5.867188 -13.53125 5.328125 -12.5625 C 4.796875 -11.601562 4.53125 -10.269531 4.53125 -8.5625 Z M 4.53125 -8.5625 "/></g></g></g></svg>