<svg xmlns="http://www.w3.org/2000/svg" xmlns:xlink="http://www.w3.org/1999/xlink" width="40" zoomAndPan="magnify" viewBox="0 0 30 30.000001" height="40" preserveAspectRatio="xMidYMid meet" version="1.0"><defs><g/></defs><g fill="#8c52ff" fill-opacity="1"><g transform="translate(0.48387, 24.986548)"><g><path d="M 0.734375 -12.328125 L 0.734375 -17.046875 L 6.6875 -20.890625 L 8.9375 -20.890625 L 8.9375 0 L 4.171875 0 L 4.171875 -14.5625 Z M 0.734375 -12.328125 "/></g></g></g><g fill="#8c52ff" fill-opacity="1"><g transform="translate(10.409834, 24.986548)"><g><path d="M 0.703125 -10.4375 C 0.703125 -13.882812 1.519531 -16.550781 3.15625 -18.4375 C 4.800781 -20.332031 6.820312 -21.28125 9.21875 -21.28125 C 11.613281 -21.28125 13.625 -20.332031 15.25 -18.4375 C 16.882812 -16.550781 17.703125 -13.882812 17.703125 -10.4375 C 17.703125 -8.5625 17.472656 -6.914062 17.015625 -5.5 C 16.566406 -4.082031 15.941406 -2.953125 15.140625 -2.109375 C 14.335938 -1.273438 13.441406 -0.648438 12.453125 -0.234375 C 11.460938 0.171875 10.382812 0.375 9.21875 0.375 C 8.050781 0.375 6.972656 0.171875 5.984375 -0.234375 C 5.003906 -0.648438 4.109375 -1.273438 3.296875 -2.109375 C 2.484375 -2.953125 1.847656 -4.082031 1.390625 -5.5 C 0.929688 -6.914062 0.703125 -8.5625 0.703125 -10.4375 Z M 5.515625 -10.4375 C 5.515625 -8.226562 5.835938 -6.566406 6.484375 -5.453125 C 7.128906 -4.347656 8.039062 -3.796875 9.21875 -3.796875 C 10.382812 -3.796875 11.285156 -4.347656 11.921875 -5.453125 C 12.566406 -6.566406 12.890625 -8.226562 12.890625 -10.4375 C 12.890625 -12.539062 12.5625 -14.175781 11.90625 -15.34375 C 11.257812 -16.507812 10.363281 -17.09375 9.21875 -17.09375 C 8.070312 -17.09375 7.164062 -16.503906 6.5 -15.328125 C 5.84375 -14.160156 5.515625 -12.53125 5.515625 -10.4375 Z M 5.515625 -10.4375 "/></g></g></g></svg>