<svg xmlns="http://www.w3.org/2000/svg" xmlns:xlink="http://www.w3.org/1999/xlink" width="40" zoomAndPan="magnify" viewBox="0 0 30 30.000001" height="40" preserveAspectRatio="xMidYMid meet" version="1.0"><defs><clipPath id="a150e8d0f1"><path d="M 0.484375 0 L 29.515625 0 L 29.515625 29.03125 L 0.484375 29.03125 Z M 0.484375 0 " clip-rule="nonzero"/></clipPath><clipPath id="cde155f255"><path d="M 10.257812 10.308594 L 19.695312 10.308594 L 19.695312 19 L 10.257812 19 Z M 10.257812 10.308594 " clip-rule="nonzero"/></clipPath></defs><g clip-path="url(#a150e8d0f1)"><path fill="#5b2bba" d="M 26.742188 9.703125 C 27.015625 8.738281 27.023438 7.730469 26.761719 6.78125 C 26.507812 5.859375 26.011719 5.015625 25.324219 4.332031 C 23.964844 2.988281 22.03125 2.449219 20.191406 2.886719 C 19.265625 1.203125 17.535156 0.121094 15.601562 0.0390625 C 14.628906 -0.00390625 13.664062 0.210938 12.816406 0.65625 C 11.90625 1.128906 11.148438 1.859375 10.621094 2.769531 C 10.617188 2.773438 10.613281 2.78125 10.613281 2.785156 C 8.738281 2.203125 6.703125 2.652344 5.253906 3.988281 C 4.535156 4.644531 4.003906 5.480469 3.71875 6.394531 C 3.410156 7.371094 3.390625 8.425781 3.660156 9.441406 C 3.667969 9.460938 3.671875 9.484375 3.679688 9.507812 C 3.621094 9.539062 3.5625 9.566406 3.503906 9.597656 C 2.566406 10.074219 1.792969 10.796875 1.273438 11.679688 C 0.789062 12.507812 0.527344 13.460938 0.519531 14.4375 C 0.507812 16.496094 1.625 18.375 3.441406 19.347656 C 3.128906 20.335938 3.097656 21.371094 3.351562 22.351562 C 3.59375 23.28125 4.082031 24.136719 4.769531 24.832031 C 6.230469 26.3125 8.371094 26.84375 10.355469 26.226562 C 10.421875 26.207031 10.488281 26.1875 10.550781 26.167969 C 10.578125 26.207031 10.601562 26.25 10.625 26.289062 C 11.152344 27.199219 11.910156 27.929688 12.816406 28.40625 C 13.601562 28.816406 14.476562 29.027344 15.371094 29.027344 C 15.449219 29.027344 15.53125 29.027344 15.609375 29.023438 C 17.585938 28.941406 19.347656 27.808594 20.257812 26.058594 C 20.269531 26.0625 20.28125 26.066406 20.292969 26.070312 C 21.308594 26.339844 22.363281 26.320312 23.34375 26.015625 C 24.261719 25.726562 25.09375 25.195312 25.753906 24.480469 C 27.078125 23.035156 27.527344 21.019531 26.964844 19.15625 C 27.746094 18.675781 28.390625 18.011719 28.835938 17.222656 C 29.308594 16.394531 29.554688 15.445312 29.550781 14.476562 C 29.542969 12.484375 28.472656 10.671875 26.742188 9.703125 Z M 25.613281 17.371094 C 25.433594 17.464844 25.253906 17.566406 25.0625 17.675781 L 24.285156 18.121094 L 24.558594 18.976562 C 24.628906 19.195312 24.703125 19.421875 24.78125 19.640625 C 25.203125 20.816406 24.953125 22.0625 24.117188 22.976562 C 23.277344 23.886719 22.0625 24.242188 20.863281 23.921875 C 20.550781 23.839844 20.226562 23.757812 19.902344 23.6875 L 19.066406 23.496094 L 18.671875 24.257812 C 18.558594 24.476562 18.445312 24.699219 18.34375 24.917969 C 17.8125 26.046875 16.753906 26.75 15.515625 26.804688 C 14.277344 26.855469 13.167969 26.246094 12.546875 25.175781 C 12.371094 24.871094 12.1875 24.566406 12 24.273438 L 11.566406 23.59375 L 10.78125 23.792969 C 10.421875 23.886719 10.058594 23.992188 9.695312 24.105469 C 8.488281 24.480469 7.238281 24.167969 6.347656 23.269531 C 5.480469 22.390625 5.1875 21.164062 5.570312 19.988281 C 5.660156 19.707031 5.75 19.410156 5.835938 19.109375 L 6.070312 18.277344 L 5.320312 17.847656 C 5.050781 17.691406 4.78125 17.542969 4.519531 17.40625 C 3.398438 16.816406 2.734375 15.710938 2.742188 14.449219 C 2.75 13.210938 3.410156 12.136719 4.511719 11.578125 C 4.851562 11.40625 5.1875 11.222656 5.511719 11.035156 L 6.222656 10.628906 L 6.042969 9.828125 C 5.972656 9.503906 5.890625 9.183594 5.808594 8.871094 C 5.492188 7.671875 5.847656 6.460938 6.753906 5.625 C 7.667969 4.785156 8.910156 4.535156 10.082031 4.953125 C 10.304688 5.035156 10.535156 5.109375 10.765625 5.183594 L 11.582031 5.441406 L 12.039062 4.71875 C 12.214844 4.441406 12.382812 4.160156 12.542969 3.886719 C 13.164062 2.816406 14.273438 2.207031 15.507812 2.257812 C 16.746094 2.3125 17.804688 3.011719 18.335938 4.136719 C 18.425781 4.328125 18.523438 4.523438 18.621094 4.714844 L 19.039062 5.523438 L 19.910156 5.277344 C 20.117188 5.21875 20.300781 5.164062 20.480469 5.109375 C 21.65625 4.742188 22.882812 5.042969 23.757812 5.910156 C 24.632812 6.777344 24.941406 7.992188 24.585938 9.164062 C 24.507812 9.425781 24.429688 9.695312 24.359375 9.972656 L 24.144531 10.796875 L 24.882812 11.21875 C 25.113281 11.351562 25.347656 11.480469 25.578125 11.601562 C 26.667969 12.171875 27.324219 13.25 27.328125 14.484375 C 27.335938 15.714844 26.695312 16.792969 25.613281 17.371094 Z M 25.613281 17.371094 " fill-opacity="1" fill-rule="nonzero"/></g><g clip-path="url(#cde155f255)"><path fill="#7a42ea" d="M 19.679688 12.882812 C 19.679688 11.457031 18.523438 10.300781 17.097656 10.300781 C 16.230469 10.300781 15.46875 10.726562 15 11.378906 C 14.53125 10.726562 13.765625 10.300781 12.898438 10.300781 C 11.472656 10.300781 10.316406 11.457031 10.316406 12.882812 C 10.316406 13.085938 10.34375 13.28125 10.386719 13.46875 C 10.746094 15.699219 13.222656 18.050781 15 18.695312 C 16.773438 18.050781 19.253906 15.699219 19.609375 13.46875 C 19.65625 13.28125 19.679688 13.085938 19.679688 12.882812 Z M 19.679688 12.882812 " fill-opacity="1" fill-rule="nonzero"/></g></svg>