<svg xmlns="http://www.w3.org/2000/svg" xmlns:xlink="http://www.w3.org/1999/xlink" width="40" zoomAndPan="magnify" viewBox="0 0 30 30.000001" height="40" preserveAspectRatio="xMidYMid meet" version="1.0"><defs><g/></defs><g fill="#8c52ff" fill-opacity="1"><g transform="translate(0.48387, 25.090451)"><g><path d="M 0.75 -12.46875 L 0.75 -17.234375 L 6.765625 -21.125 L 9.046875 -21.125 L 9.046875 0 L 4.21875 0 L 4.21875 -14.71875 Z M 0.75 -12.46875 "/></g></g></g><g fill="#8c52ff" fill-opacity="1"><g transform="translate(10.520135, 25.090451)"><g><path d="M 0.71875 -10.546875 C 0.71875 -14.035156 1.546875 -16.734375 3.203125 -18.640625 C 4.859375 -20.554688 6.894531 -21.515625 9.3125 -21.515625 C 11.738281 -21.515625 13.773438 -20.554688 15.421875 -18.640625 C 17.078125 -16.734375 17.90625 -14.035156 17.90625 -10.546875 C 17.90625 -8.648438 17.671875 -6.984375 17.203125 -5.546875 C 16.742188 -4.117188 16.109375 -2.984375 15.296875 -2.140625 C 14.484375 -1.296875 13.578125 -0.660156 12.578125 -0.234375 C 11.585938 0.179688 10.503906 0.390625 9.328125 0.390625 C 8.148438 0.390625 7.0625 0.179688 6.0625 -0.234375 C 5.0625 -0.660156 4.148438 -1.296875 3.328125 -2.140625 C 2.503906 -2.984375 1.863281 -4.117188 1.40625 -5.546875 C 0.945312 -6.984375 0.71875 -8.648438 0.71875 -10.546875 Z M 5.578125 -10.546875 C 5.578125 -8.316406 5.898438 -6.640625 6.546875 -5.515625 C 7.203125 -4.398438 8.128906 -3.84375 9.328125 -3.84375 C 10.503906 -3.84375 11.414062 -4.398438 12.0625 -5.515625 C 12.707031 -6.640625 13.03125 -8.316406 13.03125 -10.546875 C 13.03125 -12.679688 12.703125 -14.335938 12.046875 -15.515625 C 11.390625 -16.691406 10.476562 -17.28125 9.3125 -17.28125 C 8.15625 -17.28125 7.242188 -16.6875 6.578125 -15.5 C 5.910156 -14.320312 5.578125 -12.671875 5.578125 -10.546875 Z M 5.578125 -10.546875 "/></g></g></g></svg>