<svg xmlns="http://www.w3.org/2000/svg" xmlns:xlink="http://www.w3.org/1999/xlink" width="40" zoomAndPan="magnify" viewBox="0 0 30 30.000001" height="40" preserveAspectRatio="xMidYMid meet" version="1.0"><defs><clipPath id="64a94c5a2c"><path d="M 0.808594 0 L 29.117188 0 L 29.117188 29 L 0.808594 29 Z M 0.808594 0 " clip-rule="nonzero"/></clipPath><clipPath id="7101ae3db3"><path d="M 9.566406 12.269531 L 19 12.269531 L 19 20.980469 L 9.566406 20.980469 Z M 9.566406 12.269531 " clip-rule="nonzero"/></clipPath></defs><g clip-path="url(#64a94c5a2c)"><path fill="#aa8ed6" d="M 28.203125 14.265625 L 28.167969 14.265625 L 28.167969 9.722656 C 28.167969 7.933594 26.847656 6.449219 25.128906 6.1875 L 25.128906 5.824219 C 25.128906 4.414062 24.054688 3.253906 22.683594 3.117188 C 22.425781 1.394531 20.941406 0.0664062 19.144531 0.0664062 L 4.394531 0.0664062 C 3.433594 0.0664062 2.535156 0.4375 1.863281 1.113281 C 1.183594 1.792969 0.8125 2.691406 0.8125 3.648438 L 0.8125 25.40625 C 0.8125 27.382812 2.417969 28.988281 4.394531 28.988281 L 24.585938 28.988281 C 26.5625 28.988281 28.167969 27.382812 28.167969 25.40625 L 28.167969 20.359375 L 28.203125 20.359375 C 28.742188 20.359375 29.183594 19.921875 29.183594 19.382812 L 29.183594 15.242188 C 29.183594 14.703125 28.742188 14.265625 28.203125 14.265625 Z M 28.09375 19.273438 L 25.050781 19.273438 C 24.527344 19.273438 24.035156 19.066406 23.664062 18.699219 C 23.292969 18.328125 23.089844 17.835938 23.089844 17.3125 C 23.089844 16.230469 23.96875 15.351562 25.050781 15.351562 L 28.09375 15.351562 Z M 24.039062 5.824219 L 24.039062 6.140625 L 4.9375 6.140625 L 4.9375 5.824219 C 4.9375 4.921875 5.667969 4.191406 6.570312 4.191406 L 22.410156 4.191406 C 23.308594 4.191406 24.039062 4.921875 24.039062 5.824219 Z M 2.632812 1.882812 C 3.097656 1.414062 3.726562 1.152344 4.394531 1.152344 L 19.144531 1.152344 C 20.332031 1.152344 21.328125 1.988281 21.578125 3.101562 L 6.570312 3.101562 C 5.070312 3.101562 3.851562 4.324219 3.851562 5.824219 L 3.851562 6.078125 C 3.792969 6.066406 3.738281 6.054688 3.683594 6.035156 C 3.675781 6.03125 3.664062 6.03125 3.648438 6.027344 C 3.574219 6.003906 3.503906 5.976562 3.433594 5.949219 C 3.414062 5.941406 3.394531 5.933594 3.375 5.921875 C 3.324219 5.902344 3.277344 5.878906 3.226562 5.851562 C 3.203125 5.839844 3.179688 5.824219 3.15625 5.808594 C 3.113281 5.785156 3.074219 5.761719 3.035156 5.734375 C 3.011719 5.722656 2.984375 5.703125 2.960938 5.6875 C 2.921875 5.660156 2.882812 5.632812 2.847656 5.601562 C 2.824219 5.585938 2.804688 5.566406 2.78125 5.546875 C 2.746094 5.515625 2.710938 5.484375 2.675781 5.449219 C 2.65625 5.429688 2.632812 5.414062 2.617188 5.394531 C 2.578125 5.355469 2.542969 5.316406 2.507812 5.273438 C 2.496094 5.257812 2.480469 5.246094 2.464844 5.230469 C 2.417969 5.171875 2.371094 5.113281 2.332031 5.046875 C 2.324219 5.035156 2.316406 5.023438 2.308594 5.007812 C 2.273438 4.960938 2.242188 4.910156 2.214844 4.855469 C 2.199219 4.832031 2.191406 4.808594 2.175781 4.78125 C 2.15625 4.738281 2.132812 4.695312 2.113281 4.648438 C 2.101562 4.625 2.09375 4.597656 2.078125 4.566406 C 2.0625 4.523438 2.042969 4.480469 2.03125 4.433594 C 2.023438 4.40625 2.011719 4.375 2.003906 4.347656 C 1.988281 4.300781 1.976562 4.253906 1.964844 4.207031 C 1.960938 4.179688 1.953125 4.152344 1.945312 4.121094 C 1.933594 4.070312 1.929688 4.015625 1.921875 3.964844 C 1.921875 3.9375 1.914062 3.914062 1.910156 3.890625 C 1.90625 3.808594 1.898438 3.730469 1.898438 3.648438 C 1.902344 2.980469 2.160156 2.355469 2.632812 1.882812 Z M 27.078125 25.40625 C 27.078125 26.78125 25.960938 27.902344 24.585938 27.902344 L 4.394531 27.902344 C 3.019531 27.902344 1.902344 26.78125 1.902344 25.40625 L 1.902344 6.214844 C 1.9375 6.25 1.980469 6.28125 2.015625 6.316406 C 2.054688 6.351562 2.09375 6.390625 2.136719 6.421875 C 2.179688 6.457031 2.230469 6.492188 2.28125 6.53125 C 2.324219 6.5625 2.367188 6.59375 2.410156 6.625 C 2.460938 6.660156 2.515625 6.6875 2.566406 6.71875 C 2.613281 6.746094 2.65625 6.777344 2.707031 6.800781 C 2.761719 6.832031 2.816406 6.855469 2.871094 6.882812 C 2.917969 6.90625 2.96875 6.929688 3.015625 6.949219 C 3.074219 6.972656 3.132812 6.992188 3.191406 7.015625 C 3.242188 7.03125 3.289062 7.050781 3.339844 7.066406 C 3.402344 7.085938 3.472656 7.101562 3.535156 7.121094 C 3.585938 7.132812 3.628906 7.144531 3.679688 7.15625 C 3.734375 7.164062 3.792969 7.171875 3.847656 7.179688 L 3.847656 7.226562 L 24.582031 7.226562 C 25.957031 7.226562 27.078125 8.34375 27.078125 9.71875 L 27.078125 14.261719 L 25.046875 14.261719 C 23.367188 14.261719 22 15.628906 22 17.308594 C 22 18.125 22.316406 18.890625 22.890625 19.464844 C 23.46875 20.042969 24.234375 20.359375 25.046875 20.359375 L 27.078125 20.359375 Z M 27.078125 25.40625 " fill-opacity="1" fill-rule="nonzero"/></g><g clip-path="url(#7101ae3db3)"><path fill="#9e7fd0" d="M 18.988281 14.84375 C 18.988281 13.417969 17.832031 12.261719 16.40625 12.261719 C 15.539062 12.261719 14.773438 12.6875 14.304688 13.339844 C 13.835938 12.6875 13.074219 12.261719 12.207031 12.261719 C 10.78125 12.261719 9.625 13.417969 9.625 14.84375 C 9.625 15.046875 9.648438 15.242188 9.691406 15.429688 C 10.050781 17.660156 12.53125 20.011719 14.304688 20.65625 C 16.082031 20.011719 18.558594 17.660156 18.917969 15.429688 C 18.960938 15.242188 18.988281 15.046875 18.988281 14.84375 Z M 18.988281 14.84375 " fill-opacity="1" fill-rule="nonzero"/></g></svg>